<?xml version="1.0" encoding="UTF-8"?>
<svg width="25px" height="27px" viewBox="0 0 25 27" version="1.1" xmlns="http://www.w3.org/2000/svg" xmlns:xlink="http://www.w3.org/1999/xlink">
    <!-- Generator: Sketch 49.3 (51167) - http://www.bohemiancoding.com/sketch -->
    <title>Shape</title>
    <desc>Created with Sketch.</desc>
    <defs></defs>
    <g id="Page-1" stroke="none" stroke-width="1" fill="none" fill-rule="evenodd">
        <g id="calendar" fill="#999999" fill-rule="nonzero">
            <path d="M20.678201,2.46009688 L18.2465996,2.46009688 L18.2465996,1.24428191 C18.2465996,0.514798632 17.7602679,0.0284669453 17.0307846,0.0284669453 C16.3013013,0.0284669453 15.8149696,0.514798632 15.8149696,1.24428191 L15.8149696,2.46009688 L8.52013678,2.46009688 L8.52013678,1.24428191 C8.52013678,0.514798632 8.03380509,0.0284669453 7.30432181,0.0284669453 C6.57483853,0.0284669453 6.08850684,0.514798632 6.08850684,1.24428191 L6.08850684,2.46009688 L3.65690539,2.46009688 C1.59004559,2.46009688 0.00948898179,4.04065349 0.00948898179,6.10751329 L0.00948898179,23.1287804 C0.00948898179,25.1956402 1.59004559,26.7761968 3.65690539,26.7761968 L20.6781725,26.7761968 C22.7450323,26.7761968 24.3255889,25.1956402 24.3255889,23.1287804 L24.3255889,6.10751329 C24.3255889,4.04065349 22.7450323,2.46009688 20.6781725,2.46009688 L20.678201,2.46009688 Z M3.65690539,4.89169833 L6.08850684,4.89169833 L6.08850684,6.10751329 C6.08850684,6.83699658 6.57483853,7.32332827 7.30432181,7.32332827 C8.03380509,7.32332827 8.52013678,6.83699658 8.52013678,6.10751329 L8.52013678,4.89169833 L15.8149696,4.89169833 L15.8149696,6.10751329 C15.8149696,6.83699658 16.3013013,7.32332827 17.0307846,7.32332827 C17.7602679,7.32332827 18.2465996,6.83699658 18.2465996,6.10751329 L18.2465996,4.89169833 L20.678201,4.89169833 C21.4076843,4.89169833 21.894016,5.37803002 21.894016,6.10751329 L21.894016,9.75492973 L2.44111892,9.75492973 L2.44111892,6.10751329 C2.44111892,5.37803002 2.92745061,4.89169833 3.65693389,4.89169833 L3.65690539,4.89169833 Z M20.678201,24.3445954 L3.65693389,24.3445954 C2.92745061,24.3445954 2.44111892,23.8582637 2.44111892,23.1287804 L2.44111892,12.1865312 L21.894016,12.1865312 L21.894016,23.1287804 C21.894016,23.8582637 21.4076843,24.3445954 20.678201,24.3445954 Z" id="Shape"></path>
        </g>
    </g>
</svg>