<?xml version="1.0" encoding="UTF-8"?>
<svg width="30px" height="30px" viewBox="0 0 30 30" version="1.1" xmlns="http://www.w3.org/2000/svg" xmlns:xlink="http://www.w3.org/1999/xlink">
    <g id="Page-1" stroke="none" stroke-width="1" fill="none" fill-rule="evenodd">
        <g id="search" fill="#999999" fill-rule="nonzero">
            <path d="M29.5386534,27.4519672 L23.9929742,21.9062881 C25.7915691,19.6580445 26.9906206,16.6603981 26.9906206,13.5128571 C26.9906206,6.01872365 20.9952927,0.0233957845 13.5011593,0.0233957845 C6.00702576,0.0233957845 0.0116978923,6.01872365 0.0116978923,13.5128571 C0.0116978923,21.0069906 6.00702576,27.0023185 13.5011593,27.0023185 C16.6487002,27.0023185 19.6463466,25.9531265 21.8945902,24.0046721 L27.4402693,29.5503513 C27.7400234,29.8501054 28.1896721,30 28.4894614,30 C28.7892506,30 29.2388642,29.8501054 29.5386534,29.5503513 C30.1381967,28.950808 30.1381967,28.0515105 29.5386534,27.4520023 L29.5386534,27.4519672 Z M3.00937939,13.5128571 C3.00937939,7.66742389 7.65576112,3.02104215 13.5011944,3.02104215 C19.3466276,3.02104215 23.9930094,7.66742389 23.9930094,13.5128571 C23.9930094,16.360644 22.7939578,19.0585363 20.995363,20.8571311 C20.995363,20.8571311 20.995363,20.8571311 20.995363,20.8571311 C20.995363,20.8571311 20.995363,20.8571311 20.995363,20.8571311 C19.0468735,22.8056206 16.4988759,23.8547775 13.651089,23.8547775 C7.65576112,24.0046721 3.00941452,19.3582904 3.00941452,13.5128571 L3.00937939,13.5128571 Z" id="Shape"></path>
        </g>
    </g>
</svg>