<?xml version="1.0" encoding="UTF-8"?>
<svg width="28px" height="28px" viewBox="0 0 28 28" version="1.1" xmlns="http://www.w3.org/2000/svg" xmlns:xlink="http://www.w3.org/1999/xlink">
    <!-- Generator: Sketch 49.3 (51167) - http://www.bohemiancoding.com/sketch -->
    <title>Shape</title>
    <desc>Created with Sketch.</desc>
    <defs></defs>
    <g id="Page-1" stroke="none" stroke-width="1" fill="none" fill-rule="evenodd">
        <g id="calendar" transform="translate(-27.000000, 0.000000)" fill="#999999" fill-rule="nonzero">
            <path d="M40.6870199,9.04385 C38.207771,9.04385 36.1793019,11.0723191 36.1793019,13.5515679 C36.1793019,16.0308167 38.207771,18.0592859 40.6870199,18.0592859 C43.1662687,18.0592859 45.1947378,16.0308167 45.1947378,13.5515679 C45.1947378,11.0723191 43.1662687,9.04385 40.6870199,9.04385 Z M40.6870199,15.8054137 C39.4474087,15.8054137 38.4331741,14.7911792 38.4331741,13.5515679 C38.4331741,12.3119567 39.4474087,11.2977222 40.6870199,11.2977222 C41.926631,11.2977222 42.9408656,12.3119567 42.9408656,13.5515679 C42.9408656,14.7911792 41.926631,15.8054137 40.6870199,15.8054137 Z M50.0405075,17.3831295 C50.1532091,17.1577529 50.3785857,16.9323498 50.8293654,16.9323498 C52.745133,16.9323498 54.2101472,15.4673355 54.2101472,13.5515679 C54.2101472,11.6358003 52.745133,10.1707861 50.8293654,10.1707861 L50.6039887,10.1707861 C50.3786121,10.1707861 50.1532091,10.0580845 50.0405339,9.83270791 C50.0405339,9.72000639 50.0405339,9.72000639 49.9278324,9.60733121 C49.8151308,9.38195459 49.8151308,9.04387645 50.1532091,8.70579823 C51.5055217,7.35348548 51.5055217,5.21231484 50.1532091,3.97270363 C50.1532091,3.97270363 50.1532091,3.97270363 50.1532091,3.97270363 C49.4770527,3.29654727 48.6881948,2.95846908 47.7866617,2.95846908 C47.7866617,2.95846908 47.7866617,2.95846908 47.7866617,2.95846908 C46.8851287,2.95846908 45.9835693,3.29654727 45.3074129,3.97270363 C45.0820363,4.19808028 44.7439581,4.19808028 44.518555,4.08540517 C44.2931784,4.08540517 44.0677752,3.74732698 44.0677752,3.40924879 C44.0677752,1.49348122 42.6027611,0.0284669453 40.6869935,0.0284669453 C38.7712258,0.0284669453 37.3062116,1.49348122 37.3062116,3.40924879 L37.3062116,3.63462544 C37.3062116,3.86000211 37.19351,4.08540517 36.9681334,4.19808028 C36.8554319,4.19808028 36.8554319,4.19808028 36.7427567,4.31078182 C36.5173801,4.42348335 36.1793019,4.31078182 35.8412237,4.08540517 C34.488911,2.73309243 32.3477403,2.73309243 31.1081291,4.08540517 C29.7558164,5.43771791 29.7558164,7.57888855 31.2208307,8.93120129 C31.4462073,9.15657798 31.4462073,9.49465612 31.3335322,9.83273436 C31.2208307,10.058111 30.8827525,10.283514 30.5446743,10.283514 C28.6289067,10.283514 27.1638924,11.7485283 27.1638924,13.6642959 C27.1638924,15.5800634 28.6289067,17.0450777 30.5446743,17.0450777 L30.7700509,17.0450777 C31.1081291,17.0450777 31.3335058,17.2704544 31.4462073,17.4958575 C31.5589088,17.7212605 31.5589088,18.0593123 31.2208307,18.3973905 C30.5446743,19.0735468 30.2065961,19.8624047 30.2065961,20.7639377 C30.2065961,21.6654708 30.5446743,22.4543287 31.2208307,23.1304851 C31.2208307,23.1304851 31.2208307,23.1304851 31.2208307,23.1304851 C32.5731434,24.4827978 34.714314,24.4827978 36.0666268,23.0177836 C36.2920035,22.7924069 36.6300816,22.7924069 36.9681598,22.905082 C37.306238,23.0177571 37.4189395,23.2431602 37.4189395,23.6939399 C37.4189395,25.6097075 38.8839538,27.0747217 40.7997214,27.0747217 C42.7154889,27.0747217 44.1805032,25.6097075 44.1805032,23.6939399 L44.1805032,23.4685632 C44.1805032,23.1304851 44.4058799,22.9051084 44.631283,22.7924069 C44.856686,22.6797053 45.1947378,22.6797053 45.532816,23.0177836 C46.8851287,24.3700962 49.0262994,24.3700962 50.2659106,23.0177836 C51.6182233,21.6654708 51.6182233,19.5243002 50.1532091,18.1719874 C50.0405075,17.9466108 49.9278324,17.6085326 50.0405075,17.3831295 C50.0405075,17.3831295 50.0405075,17.3831295 50.0405075,17.3831295 Z M48.0120384,16.4815701 C47.5612587,17.6085062 47.7866617,18.8481173 48.6881948,19.8623519 C48.9135714,20.0877286 49.0262729,20.3131316 49.0262729,20.6512099 C49.0262729,20.989288 48.9135714,21.2146647 48.6881948,21.4400678 C48.4628181,21.6654444 48.237415,21.7781459 47.8993369,21.7781459 C47.8993369,21.7781459 47.8993369,21.7781459 47.8993369,21.7781459 C47.5612587,21.7781459 47.335882,21.6654444 46.9978038,21.3273662 C46.0962708,20.4258331 44.8566331,20.2004301 43.7297235,20.7639114 C42.6027874,21.2146911 41.926631,22.3416007 41.926631,23.4685368 L41.926631,23.6939135 C41.926631,24.3700699 41.4758514,24.8208496 40.799695,24.8208496 C40.1235386,24.8208496 39.6727588,24.3700699 39.6727588,23.6939135 C39.6727588,23.6939135 39.6727588,23.581212 39.6727588,23.581212 C39.6727588,22.3416007 38.8839009,21.3273662 37.7569913,20.8765865 C37.4189131,20.6512099 36.9681334,20.6512099 36.5173801,20.6512099 C35.7285222,20.6512099 34.9396907,20.989288 34.3762095,21.5527428 C33.9254297,22.0035226 33.2492734,22.0035226 32.7985201,21.5527428 C32.7985201,21.5527428 32.7985201,21.5527428 32.7985201,21.5527428 C32.5731434,21.3273662 32.4604419,21.1019632 32.4604419,20.7638849 C32.4604419,20.4258068 32.5731434,20.2004301 32.9112216,19.8623519 C33.8127546,18.9608189 34.0381577,17.7211813 33.4746764,16.5942716 C33.0238967,15.4673355 31.896987,14.7911792 30.7700509,14.7911792 L30.5446743,14.7911792 C29.8685179,14.7911792 29.4177382,14.3403994 29.4177382,13.664243 C29.4177382,12.9880867 29.8685179,12.537307 30.5446743,12.537307 C30.5446743,12.537307 30.6573758,12.537307 30.6573758,12.537307 C31.896987,12.537307 32.9112216,11.7484491 33.3620013,10.6215394 C33.812781,9.49462968 33.587378,8.2549921 32.6858449,7.24075754 C32.2350652,6.78997782 32.2350652,6.11382145 32.6858449,5.66306814 C33.1366247,5.21231484 33.812781,5.21228843 34.3762359,5.77576968 C35.1650938,6.56462759 36.404705,6.79000424 37.4189395,6.45192605 C37.5316411,6.45192605 37.6443162,6.45192605 37.7570177,6.33922452 C38.8839538,5.8884448 39.5601102,4.76153512 39.5601102,3.63459904 L39.5601102,3.40922238 C39.5601102,2.73306601 40.0108899,2.2822863 40.6870462,2.2822863 C41.3632026,2.2822863 41.8139824,2.73306601 41.8139824,3.5218975 C41.8139824,4.76150871 42.4901388,5.77574327 43.6170748,6.22652298 C44.7440109,6.6773027 45.9836221,6.45189963 46.9978567,5.55036662 C47.2232333,5.32498996 47.4486364,5.21228843 47.7867146,5.21228843 C48.1247927,5.21228843 48.3501694,5.32498996 48.5755725,5.55036662 C48.5755725,5.55036662 48.5755725,5.55036662 48.5755725,5.55036662 C49.0263522,6.00114633 49.0263522,6.6773027 48.462871,7.24075754 C47.6740131,8.02961544 47.4486364,9.26922662 47.7867146,10.2834612 C47.7867146,10.3961628 47.7867146,10.5088378 47.8994161,10.6215394 C48.3501958,11.7484755 49.4771055,12.4246319 50.6040415,12.4246319 L50.8294182,12.4246319 C51.5055746,12.4246319 51.9563543,12.8754116 51.9563543,13.5515679 C51.9563543,14.2277243 51.5055746,14.678504 50.7167431,14.678504 C49.589807,14.678504 48.4628973,15.3546604 48.0121177,16.4815965 L48.0120384,16.4815701 Z" id="Shape"></path>
        </g>
    </g>
</svg>