<?xml version="1.0" encoding="utf-8"?>
<!-- Generator: Adobe Illustrator 21.1.0, SVG Export Plug-In . SVG Version: 6.00 Build 0)  -->
<svg version="1.1" id="Layer_1" xmlns="http://www.w3.org/2000/svg" xmlns:xlink="http://www.w3.org/1999/xlink" x="0px" y="0px"
	 viewBox="0 0 31 31" style="enable-background:new 0 0 31 31;" xml:space="preserve">
<style type="text/css">
	.st0{fill:#999999;}
</style>
<path id="linkedin" class="st0" d="M7.4,15.7v8.9h4.2V15v-2.5H7.4V15.7z M9.5,10.7c1.2,0,2.2-1,2.2-2.2c0-1.2-1-2.2-2.2-2.2
	s-2.2,1-2.2,2.2C7.4,9.7,8.3,10.7,9.5,10.7z M25.5,16.2c-0.2-2.3-1.3-3.7-4.4-3.7c-1.8,0-3.1,0.7-3.6,1.7v-1.7h-3.4v2.3v9.8h3.6v-6
	c0-1.6,0.2-3.1,2.3-3.1c1.9,0,2,1.8,2,3.2v5.9h3.6v-6.7C25.6,17.3,25.6,16.7,25.5,16.2z"/>
</svg>
