<?xml version="1.0" encoding="utf-8"?>
<!-- Generator: Adobe Illustrator 21.1.0, SVG Export Plug-In . SVG Version: 6.00 Build 0)  -->
<svg version="1.1" id="Layer_1" xmlns="http://www.w3.org/2000/svg" xmlns:xlink="http://www.w3.org/1999/xlink" x="0px" y="0px"
	 viewBox="0 0 31 31" style="enable-background:new 0 0 31 31;" xml:space="preserve">
<style type="text/css">
	.st0{fill:#999999;}
</style>
<path id="Facebook" class="st0" d="M12.7,25.7h4.5V15.5h2.7c0.2,0,0.4-0.2,0.5-0.4l0.3-2.5c0-0.3-0.2-0.5-0.5-0.5h-3V10
	c0-0.9,0.3-1.6,1.6-1.6h1.3c0.3,0,0.5-0.2,0.5-0.5V5.8c0-0.3-0.2-0.5-0.5-0.5h-2c-2.5,0-5.3,1.5-5.3,4.3V12h-2
	c-0.3,0-0.5,0.2-0.5,0.5V15c0,0.3,0.2,0.5,0.5,0.5h2L12.7,25.7z"/>
</svg>
