<?xml version="1.0" encoding="utf-8"?>
<!-- Generator: Adobe Illustrator 21.1.0, SVG Export Plug-In . SVG Version: 6.00 Build 0)  -->
<svg version="1.1" id="Layer_1" xmlns="http://www.w3.org/2000/svg" xmlns:xlink="http://www.w3.org/1999/xlink" x="0px" y="0px"
	 viewBox="0 0 32 32" style="enable-background:new 0 0 32 32;" xml:space="preserve">
<style type="text/css">
	.st0{fill:#999999;}
</style>
<path id="Combined-Shape" class="st0" d="M20.2,5h-8.8c-3.6,0-6.5,2.9-6.5,6.5v8.8c0,3.6,2.9,6.5,6.5,6.5h8.8c3.6,0,6.5-2.9,6.5-6.5
	v-8.8C26.7,7.9,23.8,5,20.2,5z M24.5,20.3c0,2.4-1.9,4.3-4.3,4.3h-8.8c-2.4,0-4.3-1.9-4.3-4.3v-8.8c0-2.4,1.9-4.3,4.3-4.3h8.8
	c2.4,0,4.3,1.9,4.3,4.3V20.3z M15.8,10.3c-3.1,0-5.6,2.5-5.6,5.6c0,3.1,2.5,5.6,5.6,5.6s5.6-2.5,5.6-5.6S18.9,10.3,15.8,10.3z
	 M15.8,19.3c-1.9,0-3.4-1.5-3.4-3.4s1.5-3.4,3.4-3.4s3.4,1.5,3.4,3.4C19.3,17.8,17.7,19.3,15.8,19.3z M22.8,10.3
	c0-0.7-0.6-1.3-1.3-1.3c-0.7,0-1.3,0.6-1.3,1.3c0,0.7,0.6,1.3,1.3,1.3C22.2,11.6,22.8,11,22.8,10.3z"/>
</svg>
